<svg height="100%"
 stroke-miterlimit="10" style="fill-rule:nonzero;clip-rule:evenodd;stroke-linecap:round;stroke-linejoin:round;" version="1.1" viewBox="405.032 436.999 12.9633 5.00282" width="100%" xml:space="preserve"
    xmlns="http://www.w3.org/2000/svg"
>
    <defs/>
    <clipPath id="ArtboardFrame">
        <rect height="5.00282" width="12.9633" x="405.032" y="436.999"/>
    </clipPath>
    <g clip-path="url(#ArtboardFrame)" id="Layer" vectornator:layerName="Layer">
        <path d="M405.502 437C405.308 437.012 405.138 437.135 405.067 437.316C404.996 437.497 405.036 437.703 405.17 437.844C406.494 439.282 408.252 442.002 411.515 442.002C414.779 442.002 416.539 439.282 417.863 437.844C418.05 437.64 418.037 437.324 417.834 437.137C417.63 436.95 417.314 436.963 417.127 437.166C415.691 438.725 414.221 441.002 411.515 441.002C408.81 441.002 407.34 438.725 405.904 437.166C405.802 437.052 405.654 436.991 405.502 437Z" fill="#4d4a4a" fill-rule="nonzero" opacity="1" stroke="none" vectornator:layerName="path"/>
    </g>
</svg>
